<svg width="50" height="51" viewBox="0 0 50 51" fill="none" xmlns="http://www.w3.org/2000/svg">
<path d="M33.3333 50.5V42.1666C37.9444 42.1666 41.6666 38.4444 41.6666 33.8333H49.9999C49.9999 43.0555 42.5277 50.5 33.3333 50.5Z" fill="#FFD11A"/>
<path d="M33.3333 50.5V42.1666C28.7222 42.1666 25 38.4444 25 33.8333H16.6666C16.6666 43.0555 24.1388 50.5 33.3333 50.5Z" fill="#FFD11A"/>
<path d="M0 33.8334H8.33333C8.33333 38.4445 12.0556 42.1667 16.6667 42.1667V50.5C7.47222 50.5 0 43.0556 0 33.8334Z" fill="#FFD11A"/>
<path d="M0 33.8334H8.33333C8.33333 29.2222 12.0556 25.5 16.6667 25.5V17.1667C7.47222 17.1667 0 24.6389 0 33.8334Z" fill="#FFD11A"/>
<path d="M16.6667 0.5V8.83333C12.0556 8.83333 8.33333 12.5556 8.33333 17.1667H0C0 7.97222 7.47222 0.5 16.6667 0.5Z" fill="#FFD11A"/>
<path d="M16.6666 0.5V8.83333C21.2777 8.83333 25 12.5556 25 17.1667H33.3333C33.3333 7.97222 25.8611 0.5 16.6666 0.5Z" fill="#FFD11A"/>
<path d="M50 17.1667H41.6667C41.6667 12.5556 37.9445 8.83333 33.3334 8.83333V0.5C42.5278 0.5 50 7.97222 50 17.1667Z" fill="#FFD11A"/>
<path d="M50 17.1667H41.6667C41.6667 21.7778 37.9445 25.5 33.3334 25.5V33.8334C42.5278 33.8334 50 26.3889 50 17.1667Z" fill="#FFD11A"/>
</svg>
