<svg width="20" height="20" viewBox="0 0 20 20" fill="none" stroke="white" xmlns="http://www.w3.org/2000/svg">
<path d="M9.48061 1.4987C9.67276 1.03673 10.3272 1.03673 10.5193 1.4987L12.6453 6.61016C12.7263 6.80492 12.9095 6.93799 13.1197 6.95485L18.638 7.39724C19.1367 7.43722 19.339 8.05963 18.959 8.38514L14.7546 11.9866C14.5945 12.1238 14.5245 12.3391 14.5734 12.5443L15.8579 17.9292C15.974 18.4159 15.4446 18.8005 15.0176 18.5397L10.2932 15.6541C10.1132 15.5441 9.88678 15.5441 9.70677 15.6541L4.98238 18.5397C4.55539 18.8005 4.02594 18.4159 4.14203 17.9292L5.42652 12.5443C5.47546 12.3391 5.4055 12.1238 5.24531 11.9866L1.04099 8.38514C0.660997 8.05964 0.86323 7.43722 1.36197 7.39724L6.88022 6.95485C7.09048 6.93799 7.27363 6.80492 7.35464 6.61016L9.48061 1.4987Z" stroke-width="1.5" stroke-linecap="round" stroke-linejoin="round"/>
</svg>
